<svg xmlns="http://www.w3.org/2000/svg" viewBox="0 0 512 512">
  <defs>
    <!-- Dramatic manga-style gradient -->
    <radialGradient id="burstCenter" cx="50%" cy="50%" r="50%">
      <stop offset="0%" stop-color="#ff6b35"/>
      <stop offset="40%" stop-color="#e63946"/>
      <stop offset="100%" stop-color="#1a1a2e"/>
    </radialGradient>

    <!-- Halftone pattern for manga aesthetic -->
    <pattern id="halftone" x="0" y="0" width="8" height="8" patternUnits="userSpaceOnUse">
      <circle cx="4" cy="4" r="2.5" fill="#2a2a4a" opacity="0.4"/>
    </pattern>

    <!-- Speed lines filter effect -->
    <filter id="chromatic" x="-20%" y="-20%" width="140%" height="140%">
      <feColorMatrix type="matrix" values="1 0 0 0 0  0 1 0 0 0  0 0 1 0 0  0 0 0 1 0"/>
    </filter>

    <!-- Shadow for depth -->
    <filter id="dramaticShadow" x="-50%" y="-50%" width="200%" height="200%">
      <feDropShadow dx="4" dy="6" stdDeviation="3" flood-color="#000" flood-opacity="0.5"/>
    </filter>
  </defs>

  <!-- Main background with burst effect -->
  <rect width="512" height="512" rx="96" fill="url(#burstCenter)"/>
  <rect width="512" height="512" rx="96" fill="url(#halftone)"/>

  <!-- Speed lines emanating from center -->
  <g opacity="0.15" stroke="#fff" stroke-width="2">
    <line x1="256" y1="256" x2="100" y2="50"/>
    <line x1="256" y1="256" x2="412" y2="50"/>
    <line x1="256" y1="256" x2="50" y2="180"/>
    <line x1="256" y1="256" x2="462" y2="180"/>
    <line x1="256" y1="256" x2="50" y2="340"/>
    <line x1="256" y1="256" x2="462" y2="340"/>
    <line x1="256" y1="256" x2="100" y2="462"/>
    <line x1="256" y1="256" x2="412" y2="462"/>
    <line x1="256" y1="256" x2="256" y2="20"/>
    <line x1="256" y1="256" x2="256" y2="492"/>
    <line x1="256" y1="256" x2="20" y2="256"/>
    <line x1="256" y1="256" x2="492" y2="256"/>
  </g>

  <!-- Stylized 「縁」 (En) character / geometric E monogram -->
  <g transform="translate(256, 256)" filter="url(#dramaticShadow)">
    <!-- Outer frame - manga panel style -->
    <rect x="-140" y="-140" width="280" height="280" rx="20"
          fill="none" stroke="#fff" stroke-width="8" opacity="0.9"/>

    <!-- Inner geometric E shape constructed from brush strokes -->
    <!-- Vertical strokes with tapered manga brush effect -->
    <path d="M-90,-90 L-90,90 Q-90,100 -80,95 L-75,90" fill="none" stroke="#fff" stroke-width="24" stroke-linecap="round"/>
    <path d="M-30,-90 L-30,90" fill="none" stroke="#fff" stroke-width="20" stroke-linecap="round"/>

    <!-- Horizontal strokes -->
    <path d="M-90,-90 L30,-90" fill="none" stroke="#fff" stroke-width="24" stroke-linecap="round"/>
    <path d="M-90,0 L10,0" fill="none" stroke="#fff" stroke-width="20" stroke-linecap="round"/>
    <path d="M-90,90 L40,90" fill="none" stroke="#fff" stroke-width="24" stroke-linecap="round"/>

    <!-- Stylized 「ン」 katakana flourish / n hook -->
    <path d="M40,-60 Q90,-40 90,10 Q90,50 60,70" fill="none" stroke="#ff6b35" stroke-width="16" stroke-linecap="round"/>

    <!-- Accent dot - manga focal point -->
    <circle cx="70" cy="-70" r="18" fill="#ffd93d"/>
  </g>

  <!-- Corner brackets - manga panel aesthetic -->
  <path d="M40,80 L40,40 L80,40" fill="none" stroke="#fff" stroke-width="6" stroke-linecap="round" opacity="0.8"/>
  <path d="M432,40 L472,40 L472,80" fill="none" stroke="#fff" stroke-width="6" stroke-linecap="round" opacity="0.8"/>
  <path d="M40,432 L40,472 L80,472" fill="none" stroke="#fff" stroke-width="6" stroke-linecap="round" opacity="0.8"/>
  <path d="M432,472 L472,472 L472,432" fill="none" stroke="#fff" stroke-width="6" stroke-linecap="round" opacity="0.8"/>
</svg>
